<?xml version="1.0" standalone="no"?>
<svg xmlns:xlink="http://www.w3.org/1999/xlink" id="wave" style="transform:rotate(180deg); transition: 0.3s" viewBox="0 0 1440 230" version="1.1" xmlns="http://www.w3.org/2000/svg"><defs><linearGradient id="sw-gradient-0" x1="0" x2="0" y1="1" y2="0"><stop stop-color="rgba(5, 210, 138, 1)" offset="0%"/><stop stop-color="rgba(6, 239, 157, 1)" offset="100%"/></linearGradient></defs><path style="transform:translate(0, 0px); opacity:1" fill="url(#sw-gradient-0)" d="M0,115L21.8,118.8C43.6,123,87,130,131,126.5C174.5,123,218,107,262,95.8C305.5,84,349,77,393,72.8C436.4,69,480,69,524,69C567.3,69,611,69,655,72.8C698.2,77,742,84,785,95.8C829.1,107,873,123,916,126.5C960,130,1004,123,1047,103.5C1090.9,84,1135,54,1178,46C1221.8,38,1265,54,1309,72.8C1352.7,92,1396,115,1440,103.5C1483.6,92,1527,46,1571,38.3C1614.5,31,1658,61,1702,92C1745.5,123,1789,153,1833,172.5C1876.4,192,1920,199,1964,184C2007.3,169,2051,130,2095,126.5C2138.2,123,2182,153,2225,153.3C2269.1,153,2313,123,2356,118.8C2400,115,2444,138,2487,122.7C2530.9,107,2575,54,2618,34.5C2661.8,15,2705,31,2749,61.3C2792.7,92,2836,138,2880,130.3C2923.6,123,2967,61,3011,30.7C3054.5,0,3098,0,3120,0L3141.8,0L3141.8,230L3120,230C3098.2,230,3055,230,3011,230C2967.3,230,2924,230,2880,230C2836.4,230,2793,230,2749,230C2705.5,230,2662,230,2618,230C2574.5,230,2531,230,2487,230C2443.6,230,2400,230,2356,230C2312.7,230,2269,230,2225,230C2181.8,230,2138,230,2095,230C2050.9,230,2007,230,1964,230C1920,230,1876,230,1833,230C1789.1,230,1745,230,1702,230C1658.2,230,1615,230,1571,230C1527.3,230,1484,230,1440,230C1396.4,230,1353,230,1309,230C1265.5,230,1222,230,1178,230C1134.5,230,1091,230,1047,230C1003.6,230,960,230,916,230C872.7,230,829,230,785,230C741.8,230,698,230,655,230C610.9,230,567,230,524,230C480,230,436,230,393,230C349.1,230,305,230,262,230C218.2,230,175,230,131,230C87.3,230,44,230,22,230L0,230Z"/><defs><linearGradient id="sw-gradient-1" x1="0" x2="0" y1="1" y2="0"><stop stop-color="rgba(6, 239, 157, 1)" offset="0%"/><stop stop-color="rgba(44.446, 241.766, 172.323, 1)" offset="100%"/></linearGradient></defs><path style="transform:translate(0, 50px); opacity:0.9" fill="url(#sw-gradient-1)" d="M0,138L21.8,115C43.6,92,87,46,131,34.5C174.5,23,218,46,262,76.7C305.5,107,349,146,393,161C436.4,176,480,169,524,149.5C567.3,130,611,100,655,103.5C698.2,107,742,146,785,134.2C829.1,123,873,61,916,49.8C960,38,1004,77,1047,92C1090.9,107,1135,100,1178,99.7C1221.8,100,1265,107,1309,122.7C1352.7,138,1396,161,1440,164.8C1483.6,169,1527,153,1571,126.5C1614.5,100,1658,61,1702,49.8C1745.5,38,1789,54,1833,72.8C1876.4,92,1920,115,1964,107.3C2007.3,100,2051,61,2095,72.8C2138.2,84,2182,146,2225,141.8C2269.1,138,2313,69,2356,61.3C2400,54,2444,107,2487,115C2530.9,123,2575,84,2618,57.5C2661.8,31,2705,15,2749,30.7C2792.7,46,2836,92,2880,92C2923.6,92,2967,46,3011,34.5C3054.5,23,3098,46,3120,57.5L3141.8,69L3141.8,230L3120,230C3098.2,230,3055,230,3011,230C2967.3,230,2924,230,2880,230C2836.4,230,2793,230,2749,230C2705.5,230,2662,230,2618,230C2574.5,230,2531,230,2487,230C2443.6,230,2400,230,2356,230C2312.7,230,2269,230,2225,230C2181.8,230,2138,230,2095,230C2050.9,230,2007,230,1964,230C1920,230,1876,230,1833,230C1789.1,230,1745,230,1702,230C1658.2,230,1615,230,1571,230C1527.3,230,1484,230,1440,230C1396.4,230,1353,230,1309,230C1265.5,230,1222,230,1178,230C1134.5,230,1091,230,1047,230C1003.6,230,960,230,916,230C872.7,230,829,230,785,230C741.8,230,698,230,655,230C610.9,230,567,230,524,230C480,230,436,230,393,230C349.1,230,305,230,262,230C218.2,230,175,230,131,230C87.3,230,44,230,22,230L0,230Z"/></svg>